# xmcd
#
# Track frame offsets:
#	1384
#	12385
#	25865
#	38992
#	52512
#	65762
#	78522
#	93725
#	107525
#	122270
#	136670
#	150370
#	164087
#	177957
#	192727
#	208120
#	220750
#	234360
#	248957
#
# Disc length: 3509 seconds
#
# Revision: 0
# Processed by: cddbd v1.5.2PL0 Copyright (c) Steve Scherf et al.
# Submitted via: EasyCDDAExtractor 12.0.7.1
#
DISCID=050da313
DTITLE=Lonnie Johnson - Steppin' on the blues
DYEAR=1990
DGENRE=Blues
TTITLE0=Mr. Johnson's blues
TTITLE1=Sweet potato blues
TTITLE2=Steppin' on the blues
TTITLE3=I done told you
TTITLE4=Mean old bedbug blues
TTITLE5=Toothache blues part 1
TTITLE6=Toothache blues part 2
TTITLE7=Have to change keys ( to play these blues)
TTITLE8=Guitars blues
TTITLE9=she's makin' whoopie in hell tonight
TTITLE10=Playin' with the strings
TTITLE11=No more women blues
TTITLE12=Deep blue sea blues
TTITLE13=No more trouble now
TTITLE14=Got the blues for murder only
TTITLE15=Untitles
TTITLE16=6/88 glide
TTITLE17=Racketeer's blues
TTITLE18=I'm nuts about that gal
EXTD=
EXTT0=
EXTT1=
EXTT2=
EXTT3=
EXTT4=
EXTT5=
EXTT6=
EXTT7=
EXTT8=
EXTT9=
EXTT10=
EXTT11=
EXTT12=
EXTT13=
EXTT14=
EXTT15=
EXTT16=
EXTT17=
EXTT18=
PLAYORDER=
